<?xml version="1.0" encoding="utf-8" standalone="no"?>
<!DOCTYPE svg PUBLIC "-//W3C//DTD SVG 1.1//EN"
  "http://www.w3.org/Graphics/SVG/1.1/DTD/svg11.dtd">
<svg xmlns:xlink="http://www.w3.org/1999/xlink" width="576pt" height="288pt" viewBox="0 0 576 288" xmlns="http://www.w3.org/2000/svg" version="1.1">
 <metadata>
  <rdf:RDF xmlns:dc="http://purl.org/dc/elements/1.1/" xmlns:cc="http://creativecommons.org/ns#" xmlns:rdf="http://www.w3.org/1999/02/22-rdf-syntax-ns#">
   <cc:Work>
    <dc:type rdf:resource="http://purl.org/dc/dcmitype/StillImage"/>
    <dc:date>2024-05-25T20:08:03.139850</dc:date>
    <dc:format>image/svg+xml</dc:format>
    <dc:creator>
     <cc:Agent>
      <dc:title>Matplotlib v3.5.3, https://matplotlib.org/</dc:title>
     </cc:Agent>
    </dc:creator>
   </cc:Work>
  </rdf:RDF>
 </metadata>
 <defs>
  <style type="text/css">*{stroke-linejoin: round; stroke-linecap: butt}</style>
 </defs>
 <g id="figure_1">
  <g id="patch_1">
   <path d="M 0 288 
L 576 288 
L 576 0 
L 0 0 
z
" style="fill: #ffffff"/>
  </g>
  <g id="axes_1">
   <g id="patch_2">
    <path d="M 47.81 152.53 
L 565.2 152.53 
L 565.2 26.88 
L 47.81 26.88 
z
" style="fill: #ffffff"/>
   </g>
   <g id="patch_3">
    <path d="M 71.327727 423.539804 
L 76.672665 423.539804 
L 76.672665 127.892745 
L 71.327727 127.892745 
z
" clip-path="url(#p46bc627c92)" style="fill: #1f77b4; opacity: 0.8"/>
   </g>
   <g id="patch_4">
    <path d="M 98.052417 423.539804 
L 103.397355 423.539804 
L 103.397355 141.580109 
L 98.052417 141.580109 
z
" clip-path="url(#p46bc627c92)" style="fill: #1f77b4; opacity: 0.8"/>
   </g>
   <g id="patch_5">
    <path d="M 124.777107 423.539804 
L 130.122045 423.539804 
L 130.122045 138.842636 
L 124.777107 138.842636 
z
" clip-path="url(#p46bc627c92)" style="fill: #1f77b4; opacity: 0.8"/>
   </g>
   <g id="patch_6">
    <path d="M 151.501798 423.539804 
L 156.846736 423.539804 
L 156.846736 141.580109 
L 151.501798 141.580109 
z
" clip-path="url(#p46bc627c92)" style="fill: #1f77b4; opacity: 0.8"/>
   </g>
   <g id="patch_7">
    <path d="M 178.226488 423.539804 
L 183.571426 423.539804 
L 183.571426 116.942854 
L 178.226488 116.942854 
z
" clip-path="url(#p46bc627c92)" style="fill: #1f77b4; opacity: 0.8"/>
   </g>
   <g id="patch_8">
    <path d="M 204.951178 423.539804 
L 210.296116 423.539804 
L 210.296116 145.686318 
L 204.951178 145.686318 
z
" clip-path="url(#p46bc627c92)" style="fill: #1f77b4; opacity: 0.8"/>
   </g>
   <g id="patch_9">
    <path d="M 231.675868 423.539804 
L 237.020806 423.539804 
L 237.020806 136.105163 
L 231.675868 136.105163 
z
" clip-path="url(#p46bc627c92)" style="fill: #1f77b4; opacity: 0.8"/>
   </g>
   <g id="patch_10">
    <path d="M 258.400558 423.539804 
L 263.745496 423.539804 
L 263.745496 140.48512 
L 258.400558 140.48512 
z
" clip-path="url(#p46bc627c92)" style="fill: #1f77b4; opacity: 0.8"/>
   </g>
   <g id="patch_11">
    <path d="M 285.125248 423.539804 
L 290.470186 423.539804 
L 290.470186 136.105163 
L 285.125248 136.105163 
z
" clip-path="url(#p46bc627c92)" style="fill: #1f77b4; opacity: 0.8"/>
   </g>
   <g id="patch_12">
    <path d="M 311.849938 423.539804 
L 317.194876 423.539804 
L 317.194876 122.4178 
L 311.849938 122.4178 
z
" clip-path="url(#p46bc627c92)" style="fill: #1f77b4; opacity: 0.8"/>
   </g>
   <g id="patch_13">
    <path d="M 338.574628 423.539804 
L 343.919566 423.539804 
L 343.919566 127.892745 
L 338.574628 127.892745 
z
" clip-path="url(#p46bc627c92)" style="fill: #1f77b4; opacity: 0.8"/>
   </g>
   <g id="patch_14">
    <path d="M 365.299318 423.539804 
L 370.644256 423.539804 
L 370.644256 130.630218 
L 365.299318 130.630218 
z
" clip-path="url(#p46bc627c92)" style="fill: #1f77b4; opacity: 0.8"/>
   </g>
   <g id="patch_15">
    <path d="M 392.024008 423.539804 
L 397.368946 423.539804 
L 397.368946 84.093181 
L 392.024008 84.093181 
z
" clip-path="url(#p46bc627c92)" style="fill: #1f77b4; opacity: 0.8"/>
   </g>
   <g id="patch_16">
    <path d="M 418.748698 423.539804 
L 424.093636 423.539804 
L 424.093636 122.4178 
L 418.748698 122.4178 
z
" clip-path="url(#p46bc627c92)" style="fill: #1f77b4; opacity: 0.8"/>
   </g>
   <g id="patch_17">
    <path d="M 445.473388 423.539804 
L 450.818326 423.539804 
L 450.818326 119.680327 
L 445.473388 119.680327 
z
" clip-path="url(#p46bc627c92)" style="fill: #1f77b4; opacity: 0.8"/>
   </g>
   <g id="patch_18">
    <path d="M 472.198079 423.539804 
L 477.543017 423.539804 
L 477.543017 130.630218 
L 472.198079 130.630218 
z
" clip-path="url(#p46bc627c92)" style="fill: #1f77b4; opacity: 0.8"/>
   </g>
   <g id="patch_19">
    <path d="M 498.922769 423.539804 
L 504.267707 423.539804 
L 504.267707 136.105163 
L 498.922769 136.105163 
z
" clip-path="url(#p46bc627c92)" style="fill: #1f77b4; opacity: 0.8"/>
   </g>
   <g id="patch_20">
    <path d="M 525.647459 423.539804 
L 530.992397 423.539804 
L 530.992397 111.467908 
L 525.647459 111.467908 
z
" clip-path="url(#p46bc627c92)" style="fill: #1f77b4; opacity: 0.8"/>
   </g>
   <g id="patch_21">
    <path d="M 76.672665 423.539804 
L 82.017603 423.539804 
L 82.017603 111.467908 
L 76.672665 111.467908 
z
" clip-path="url(#p46bc627c92)" style="fill: #ff7f0e; opacity: 0.8"/>
   </g>
   <g id="patch_22">
    <path d="M 103.397355 423.539804 
L 108.742293 423.539804 
L 108.742293 138.842636 
L 103.397355 138.842636 
z
" clip-path="url(#p46bc627c92)" style="fill: #ff7f0e; opacity: 0.8"/>
   </g>
   <g id="patch_23">
    <path d="M 130.122045 423.539804 
L 135.466983 423.539804 
L 135.466983 134.736427 
L 130.122045 134.736427 
z
" clip-path="url(#p46bc627c92)" style="fill: #ff7f0e; opacity: 0.8"/>
   </g>
   <g id="patch_24">
    <path d="M 156.846736 423.539804 
L 162.191674 423.539804 
L 162.191674 140.758867 
L 156.846736 140.758867 
z
" clip-path="url(#p46bc627c92)" style="fill: #ff7f0e; opacity: 0.8"/>
   </g>
   <g id="patch_25">
    <path d="M 183.571426 423.539804 
L 188.916364 423.539804 
L 188.916364 111.467908 
L 183.571426 111.467908 
z
" clip-path="url(#p46bc627c92)" style="fill: #ff7f0e; opacity: 0.8"/>
   </g>
   <g id="patch_26">
    <path d="M 210.296116 423.539804 
L 215.641054 423.539804 
L 215.641054 144.317582 
L 210.296116 144.317582 
z
" clip-path="url(#p46bc627c92)" style="fill: #ff7f0e; opacity: 0.8"/>
   </g>
   <g id="patch_27">
    <path d="M 237.020806 423.539804 
L 242.365744 423.539804 
L 242.365744 127.892745 
L 237.020806 127.892745 
z
" clip-path="url(#p46bc627c92)" style="fill: #ff7f0e; opacity: 0.8"/>
   </g>
   <g id="patch_28">
    <path d="M 263.745496 423.539804 
L 269.090434 423.539804 
L 269.090434 136.105163 
L 263.745496 136.105163 
z
" clip-path="url(#p46bc627c92)" style="fill: #ff7f0e; opacity: 0.8"/>
   </g>
   <g id="patch_29">
    <path d="M 290.470186 423.539804 
L 295.815124 423.539804 
L 295.815124 130.630218 
L 290.470186 130.630218 
z
" clip-path="url(#p46bc627c92)" style="fill: #ff7f0e; opacity: 0.8"/>
   </g>
   <g id="patch_30">
    <path d="M 317.194876 423.539804 
L 322.539814 423.539804 
L 322.539814 122.4178 
L 317.194876 122.4178 
z
" clip-path="url(#p46bc627c92)" style="fill: #ff7f0e; opacity: 0.8"/>
   </g>
   <g id="patch_31">
    <path d="M 343.919566 423.539804 
L 349.264504 423.539804 
L 349.264504 127.345251 
L 343.919566 127.345251 
z
" clip-path="url(#p46bc627c92)" style="fill: #ff7f0e; opacity: 0.8"/>
   </g>
   <g id="patch_32">
    <path d="M 370.644256 423.539804 
L 375.989194 423.539804 
L 375.989194 136.105163 
L 370.644256 136.105163 
z
" clip-path="url(#p46bc627c92)" style="fill: #ff7f0e; opacity: 0.8"/>
   </g>
   <g id="patch_33">
    <path d="M 397.368946 423.539804 
L 402.713884 423.539804 
L 402.713884 78.618235 
L 397.368946 78.618235 
z
" clip-path="url(#p46bc627c92)" style="fill: #ff7f0e; opacity: 0.8"/>
   </g>
   <g id="patch_34">
    <path d="M 424.093636 423.539804 
L 429.438574 423.539804 
L 429.438574 119.680327 
L 424.093636 119.680327 
z
" clip-path="url(#p46bc627c92)" style="fill: #ff7f0e; opacity: 0.8"/>
   </g>
   <g id="patch_35">
    <path d="M 450.818326 423.539804 
L 456.163264 423.539804 
L 456.163264 108.730436 
L 450.818326 108.730436 
z
" clip-path="url(#p46bc627c92)" style="fill: #ff7f0e; opacity: 0.8"/>
   </g>
   <g id="patch_36">
    <path d="M 477.543017 423.539804 
L 482.887955 423.539804 
L 482.887955 127.892745 
L 477.543017 127.892745 
z
" clip-path="url(#p46bc627c92)" style="fill: #ff7f0e; opacity: 0.8"/>
   </g>
   <g id="patch_37">
    <path d="M 504.267707 423.539804 
L 509.612645 423.539804 
L 509.612645 130.630218 
L 504.267707 130.630218 
z
" clip-path="url(#p46bc627c92)" style="fill: #ff7f0e; opacity: 0.8"/>
   </g>
   <g id="patch_38">
    <path d="M 530.992397 423.539804 
L 536.337335 423.539804 
L 536.337335 111.467908 
L 530.992397 111.467908 
z
" clip-path="url(#p46bc627c92)" style="fill: #ff7f0e; opacity: 0.8"/>
   </g>
   <g id="patch_39">
    <path d="M 82.017603 423.539804 
L 87.362541 423.539804 
L 87.362541 97.780545 
L 82.017603 97.780545 
z
" clip-path="url(#p46bc627c92)" style="fill: #2ca02c; opacity: 0.8"/>
   </g>
   <g id="patch_40">
    <path d="M 108.742293 423.539804 
L 114.087231 423.539804 
L 114.087231 138.842636 
L 108.742293 138.842636 
z
" clip-path="url(#p46bc627c92)" style="fill: #2ca02c; opacity: 0.8"/>
   </g>
   <g id="patch_41">
    <path d="M 135.466983 423.539804 
L 140.811921 423.539804 
L 140.811921 133.367691 
L 135.466983 133.367691 
z
" clip-path="url(#p46bc627c92)" style="fill: #2ca02c; opacity: 0.8"/>
   </g>
   <g id="patch_42">
    <path d="M 162.191674 423.539804 
L 167.536612 423.539804 
L 167.536612 138.842636 
L 162.191674 138.842636 
z
" clip-path="url(#p46bc627c92)" style="fill: #2ca02c; opacity: 0.8"/>
   </g>
   <g id="patch_43">
    <path d="M 188.916364 423.539804 
L 194.261302 423.539804 
L 194.261302 111.467908 
L 188.916364 111.467908 
z
" clip-path="url(#p46bc627c92)" style="fill: #2ca02c; opacity: 0.8"/>
   </g>
   <g id="patch_44">
    <path d="M 215.641054 423.539804 
L 220.985992 423.539804 
L 220.985992 142.948845 
L 215.641054 142.948845 
z
" clip-path="url(#p46bc627c92)" style="fill: #2ca02c; opacity: 0.8"/>
   </g>
   <g id="patch_45">
    <path d="M 242.365744 423.539804 
L 247.710682 423.539804 
L 247.710682 125.155272 
L 242.365744 125.155272 
z
" clip-path="url(#p46bc627c92)" style="fill: #2ca02c; opacity: 0.8"/>
   </g>
   <g id="patch_46">
    <path d="M 269.090434 423.539804 
L 274.435372 423.539804 
L 274.435372 133.367691 
L 269.090434 133.367691 
z
" clip-path="url(#p46bc627c92)" style="fill: #2ca02c; opacity: 0.8"/>
   </g>
   <g id="patch_47">
    <path d="M 295.815124 423.539804 
L 301.160062 423.539804 
L 301.160062 131.177712 
L 295.815124 131.177712 
z
" clip-path="url(#p46bc627c92)" style="fill: #2ca02c; opacity: 0.8"/>
   </g>
   <g id="patch_48">
    <path d="M 322.539814 423.539804 
L 327.884752 423.539804 
L 327.884752 122.4178 
L 322.539814 122.4178 
z
" clip-path="url(#p46bc627c92)" style="fill: #2ca02c; opacity: 0.8"/>
   </g>
   <g id="patch_49">
    <path d="M 349.264504 423.539804 
L 354.609442 423.539804 
L 354.609442 125.155272 
L 349.264504 125.155272 
z
" clip-path="url(#p46bc627c92)" style="fill: #2ca02c; opacity: 0.8"/>
   </g>
   <g id="patch_50">
    <path d="M 375.989194 423.539804 
L 381.334132 423.539804 
L 381.334132 111.467908 
L 375.989194 111.467908 
z
" clip-path="url(#p46bc627c92)" style="fill: #2ca02c; opacity: 0.8"/>
   </g>
   <g id="patch_51">
    <path d="M 402.713884 423.539804 
L 408.058822 423.539804 
L 408.058822 45.768562 
L 402.713884 45.768562 
z
" clip-path="url(#p46bc627c92)" style="fill: #2ca02c; opacity: 0.8"/>
   </g>
   <g id="patch_52">
    <path d="M 429.438574 423.539804 
L 434.783512 423.539804 
L 434.783512 116.942854 
L 429.438574 116.942854 
z
" clip-path="url(#p46bc627c92)" style="fill: #2ca02c; opacity: 0.8"/>
   </g>
   <g id="patch_53">
    <path d="M 456.163264 423.539804 
L 461.508202 423.539804 
L 461.508202 108.730436 
L 456.163264 108.730436 
z
" clip-path="url(#p46bc627c92)" style="fill: #2ca02c; opacity: 0.8"/>
   </g>
   <g id="patch_54">
    <path d="M 482.887955 423.539804 
L 488.232893 423.539804 
L 488.232893 127.892745 
L 482.887955 127.892745 
z
" clip-path="url(#p46bc627c92)" style="fill: #2ca02c; opacity: 0.8"/>
   </g>
   <g id="patch_55">
    <path d="M 509.612645 423.539804 
L 514.957583 423.539804 
L 514.957583 126.524009 
L 509.612645 126.524009 
z
" clip-path="url(#p46bc627c92)" style="fill: #2ca02c; opacity: 0.8"/>
   </g>
   <g id="patch_56">
    <path d="M 536.337335 423.539804 
L 541.682273 423.539804 
L 541.682273 100.518017 
L 536.337335 100.518017 
z
" clip-path="url(#p46bc627c92)" style="fill: #2ca02c; opacity: 0.8"/>
   </g>
   <g id="matplotlib.axis_1">
    <g id="xtick_1">
     <g id="line2d_1">
      <defs>
       <path id="m383ff3a41f" d="M 0 0 
L 0 3.5 
" style="stroke: #000000; stroke-width: 0.8"/>
      </defs>
      <g>
       <use xlink:href="#m383ff3a41f" x="76.672665" y="152.53" style="stroke: #000000; stroke-width: 0.8"/>
      </g>
     </g>
     <g id="text_1">
      <!-- automotive_bitcount -->
      <g transform="translate(79.292978 262.92375)rotate(-90)scale(0.1 -0.1)">
       <defs>
        <path id="DejaVuSans-61" d="M 2194 1759 
Q 1497 1759 1228 1600 
Q 959 1441 959 1056 
Q 959 750 1161 570 
Q 1363 391 1709 391 
Q 2188 391 2477 730 
Q 2766 1069 2766 1631 
L 2766 1759 
L 2194 1759 
z
M 3341 1997 
L 3341 0 
L 2766 0 
L 2766 531 
Q 2569 213 2275 61 
Q 1981 -91 1556 -91 
Q 1019 -91 701 211 
Q 384 513 384 1019 
Q 384 1609 779 1909 
Q 1175 2209 1959 2209 
L 2766 2209 
L 2766 2266 
Q 2766 2663 2505 2880 
Q 2244 3097 1772 3097 
Q 1472 3097 1187 3025 
Q 903 2953 641 2809 
L 641 3341 
Q 956 3463 1253 3523 
Q 1550 3584 1831 3584 
Q 2591 3584 2966 3190 
Q 3341 2797 3341 1997 
z
" transform="scale(0.015625)"/>
        <path id="DejaVuSans-75" d="M 544 1381 
L 544 3500 
L 1119 3500 
L 1119 1403 
Q 1119 906 1312 657 
Q 1506 409 1894 409 
Q 2359 409 2629 706 
Q 2900 1003 2900 1516 
L 2900 3500 
L 3475 3500 
L 3475 0 
L 2900 0 
L 2900 538 
Q 2691 219 2414 64 
Q 2138 -91 1772 -91 
Q 1169 -91 856 284 
Q 544 659 544 1381 
z
M 1991 3584 
L 1991 3584 
z
" transform="scale(0.015625)"/>
        <path id="DejaVuSans-74" d="M 1172 4494 
L 1172 3500 
L 2356 3500 
L 2356 3053 
L 1172 3053 
L 1172 1153 
Q 1172 725 1289 603 
Q 1406 481 1766 481 
L 2356 481 
L 2356 0 
L 1766 0 
Q 1100 0 847 248 
Q 594 497 594 1153 
L 594 3053 
L 172 3053 
L 172 3500 
L 594 3500 
L 594 4494 
L 1172 4494 
z
" transform="scale(0.015625)"/>
        <path id="DejaVuSans-6f" d="M 1959 3097 
Q 1497 3097 1228 2736 
Q 959 2375 959 1747 
Q 959 1119 1226 758 
Q 1494 397 1959 397 
Q 2419 397 2687 759 
Q 2956 1122 2956 1747 
Q 2956 2369 2687 2733 
Q 2419 3097 1959 3097 
z
M 1959 3584 
Q 2709 3584 3137 3096 
Q 3566 2609 3566 1747 
Q 3566 888 3137 398 
Q 2709 -91 1959 -91 
Q 1206 -91 779 398 
Q 353 888 353 1747 
Q 353 2609 779 3096 
Q 1206 3584 1959 3584 
z
" transform="scale(0.015625)"/>
        <path id="DejaVuSans-6d" d="M 3328 2828 
Q 3544 3216 3844 3400 
Q 4144 3584 4550 3584 
Q 5097 3584 5394 3201 
Q 5691 2819 5691 2113 
L 5691 0 
L 5113 0 
L 5113 2094 
Q 5113 2597 4934 2840 
Q 4756 3084 4391 3084 
Q 3944 3084 3684 2787 
Q 3425 2491 3425 1978 
L 3425 0 
L 2847 0 
L 2847 2094 
Q 2847 2600 2669 2842 
Q 2491 3084 2119 3084 
Q 1678 3084 1418 2786 
Q 1159 2488 1159 1978 
L 1159 0 
L 581 0 
L 581 3500 
L 1159 3500 
L 1159 2956 
Q 1356 3278 1631 3431 
Q 1906 3584 2284 3584 
Q 2666 3584 2933 3390 
Q 3200 3197 3328 2828 
z
" transform="scale(0.015625)"/>
        <path id="DejaVuSans-69" d="M 603 3500 
L 1178 3500 
L 1178 0 
L 603 0 
L 603 3500 
z
M 603 4863 
L 1178 4863 
L 1178 4134 
L 603 4134 
L 603 4863 
z
" transform="scale(0.015625)"/>
        <path id="DejaVuSans-76" d="M 191 3500 
L 800 3500 
L 1894 563 
L 2988 3500 
L 3597 3500 
L 2284 0 
L 1503 0 
L 191 3500 
z
" transform="scale(0.015625)"/>
        <path id="DejaVuSans-65" d="M 3597 1894 
L 3597 1613 
L 953 1613 
Q 991 1019 1311 708 
Q 1631 397 2203 397 
Q 2534 397 2845 478 
Q 3156 559 3463 722 
L 3463 178 
Q 3153 47 2828 -22 
Q 2503 -91 2169 -91 
Q 1331 -91 842 396 
Q 353 884 353 1716 
Q 353 2575 817 3079 
Q 1281 3584 2069 3584 
Q 2775 3584 3186 3129 
Q 3597 2675 3597 1894 
z
M 3022 2063 
Q 3016 2534 2758 2815 
Q 2500 3097 2075 3097 
Q 1594 3097 1305 2825 
Q 1016 2553 972 2059 
L 3022 2063 
z
" transform="scale(0.015625)"/>
        <path id="DejaVuSans-5f" d="M 3263 -1063 
L 3263 -1509 
L -63 -1509 
L -63 -1063 
L 3263 -1063 
z
" transform="scale(0.015625)"/>
        <path id="DejaVuSans-62" d="M 3116 1747 
Q 3116 2381 2855 2742 
Q 2594 3103 2138 3103 
Q 1681 3103 1420 2742 
Q 1159 2381 1159 1747 
Q 1159 1113 1420 752 
Q 1681 391 2138 391 
Q 2594 391 2855 752 
Q 3116 1113 3116 1747 
z
M 1159 2969 
Q 1341 3281 1617 3432 
Q 1894 3584 2278 3584 
Q 2916 3584 3314 3078 
Q 3713 2572 3713 1747 
Q 3713 922 3314 415 
Q 2916 -91 2278 -91 
Q 1894 -91 1617 61 
Q 1341 213 1159 525 
L 1159 0 
L 581 0 
L 581 4863 
L 1159 4863 
L 1159 2969 
z
" transform="scale(0.015625)"/>
        <path id="DejaVuSans-63" d="M 3122 3366 
L 3122 2828 
Q 2878 2963 2633 3030 
Q 2388 3097 2138 3097 
Q 1578 3097 1268 2742 
Q 959 2388 959 1747 
Q 959 1106 1268 751 
Q 1578 397 2138 397 
Q 2388 397 2633 464 
Q 2878 531 3122 666 
L 3122 134 
Q 2881 22 2623 -34 
Q 2366 -91 2075 -91 
Q 1284 -91 818 406 
Q 353 903 353 1747 
Q 353 2603 823 3093 
Q 1294 3584 2113 3584 
Q 2378 3584 2631 3529 
Q 2884 3475 3122 3366 
z
" transform="scale(0.015625)"/>
        <path id="DejaVuSans-6e" d="M 3513 2113 
L 3513 0 
L 2938 0 
L 2938 2094 
Q 2938 2591 2744 2837 
Q 2550 3084 2163 3084 
Q 1697 3084 1428 2787 
Q 1159 2491 1159 1978 
L 1159 0 
L 581 0 
L 581 3500 
L 1159 3500 
L 1159 2956 
Q 1366 3272 1645 3428 
Q 1925 3584 2291 3584 
Q 2894 3584 3203 3211 
Q 3513 2838 3513 2113 
z
" transform="scale(0.015625)"/>
       </defs>
       <use xlink:href="#DejaVuSans-61"/>
       <use xlink:href="#DejaVuSans-75" x="61.279297"/>
       <use xlink:href="#DejaVuSans-74" x="124.658203"/>
       <use xlink:href="#DejaVuSans-6f" x="163.867188"/>
       <use xlink:href="#DejaVuSans-6d" x="225.048828"/>
       <use xlink:href="#DejaVuSans-6f" x="322.460938"/>
       <use xlink:href="#DejaVuSans-74" x="383.642578"/>
       <use xlink:href="#DejaVuSans-69" x="422.851562"/>
       <use xlink:href="#DejaVuSans-76" x="450.634766"/>
       <use xlink:href="#DejaVuSans-65" x="509.814453"/>
       <use xlink:href="#DejaVuSans-5f" x="571.337891"/>
       <use xlink:href="#DejaVuSans-62" x="621.337891"/>
       <use xlink:href="#DejaVuSans-69" x="684.814453"/>
       <use xlink:href="#DejaVuSans-74" x="712.597656"/>
       <use xlink:href="#DejaVuSans-63" x="751.806641"/>
       <use xlink:href="#DejaVuSans-6f" x="806.787109"/>
       <use xlink:href="#DejaVuSans-75" x="867.96875"/>
       <use xlink:href="#DejaVuSans-6e" x="931.347656"/>
       <use xlink:href="#DejaVuSans-74" x="994.726562"/>
      </g>
     </g>
    </g>
    <g id="xtick_2">
     <g id="line2d_2">
      <g>
       <use xlink:href="#m383ff3a41f" x="103.397355" y="152.53" style="stroke: #000000; stroke-width: 0.8"/>
      </g>
     </g>
     <g id="text_2">
      <!-- automotive_qsort1 -->
      <g transform="translate(106.017668 253.734688)rotate(-90)scale(0.1 -0.1)">
       <defs>
        <path id="DejaVuSans-71" d="M 947 1747 
Q 947 1113 1208 752 
Q 1469 391 1925 391 
Q 2381 391 2643 752 
Q 2906 1113 2906 1747 
Q 2906 2381 2643 2742 
Q 2381 3103 1925 3103 
Q 1469 3103 1208 2742 
Q 947 2381 947 1747 
z
M 2906 525 
Q 2725 213 2448 61 
Q 2172 -91 1784 -91 
Q 1150 -91 751 415 
Q 353 922 353 1747 
Q 353 2572 751 3078 
Q 1150 3584 1784 3584 
Q 2172 3584 2448 3432 
Q 2725 3281 2906 2969 
L 2906 3500 
L 3481 3500 
L 3481 -1331 
L 2906 -1331 
L 2906 525 
z
" transform="scale(0.015625)"/>
        <path id="DejaVuSans-73" d="M 2834 3397 
L 2834 2853 
Q 2591 2978 2328 3040 
Q 2066 3103 1784 3103 
Q 1356 3103 1142 2972 
Q 928 2841 928 2578 
Q 928 2378 1081 2264 
Q 1234 2150 1697 2047 
L 1894 2003 
Q 2506 1872 2764 1633 
Q 3022 1394 3022 966 
Q 3022 478 2636 193 
Q 2250 -91 1575 -91 
Q 1294 -91 989 -36 
Q 684 19 347 128 
L 347 722 
Q 666 556 975 473 
Q 1284 391 1588 391 
Q 1994 391 2212 530 
Q 2431 669 2431 922 
Q 2431 1156 2273 1281 
Q 2116 1406 1581 1522 
L 1381 1569 
Q 847 1681 609 1914 
Q 372 2147 372 2553 
Q 372 3047 722 3315 
Q 1072 3584 1716 3584 
Q 2034 3584 2315 3537 
Q 2597 3491 2834 3397 
z
" transform="scale(0.015625)"/>
        <path id="DejaVuSans-72" d="M 2631 2963 
Q 2534 3019 2420 3045 
Q 2306 3072 2169 3072 
Q 1681 3072 1420 2755 
Q 1159 2438 1159 1844 
L 1159 0 
L 581 0 
L 581 3500 
L 1159 3500 
L 1159 2956 
Q 1341 3275 1631 3429 
Q 1922 3584 2338 3584 
Q 2397 3584 2469 3576 
Q 2541 3569 2628 3553 
L 2631 2963 
z
" transform="scale(0.015625)"/>
        <path id="DejaVuSans-31" d="M 794 531 
L 1825 531 
L 1825 4091 
L 703 3866 
L 703 4441 
L 1819 4666 
L 2450 4666 
L 2450 531 
L 3481 531 
L 3481 0 
L 794 0 
L 794 531 
z
" transform="scale(0.015625)"/>
       </defs>
       <use xlink:href="#DejaVuSans-61"/>
       <use xlink:href="#DejaVuSans-75" x="61.279297"/>
       <use xlink:href="#DejaVuSans-74" x="124.658203"/>
       <use xlink:href="#DejaVuSans-6f" x="163.867188"/>
       <use xlink:href="#DejaVuSans-6d" x="225.048828"/>
       <use xlink:href="#DejaVuSans-6f" x="322.460938"/>
       <use xlink:href="#DejaVuSans-74" x="383.642578"/>
       <use xlink:href="#DejaVuSans-69" x="422.851562"/>
       <use xlink:href="#DejaVuSans-76" x="450.634766"/>
       <use xlink:href="#DejaVuSans-65" x="509.814453"/>
       <use xlink:href="#DejaVuSans-5f" x="571.337891"/>
       <use xlink:href="#DejaVuSans-71" x="621.337891"/>
       <use xlink:href="#DejaVuSans-73" x="684.814453"/>
       <use xlink:href="#DejaVuSans-6f" x="736.914062"/>
       <use xlink:href="#DejaVuSans-72" x="798.095703"/>
       <use xlink:href="#DejaVuSans-74" x="839.208984"/>
       <use xlink:href="#DejaVuSans-31" x="878.417969"/>
      </g>
     </g>
    </g>
    <g id="xtick_3">
     <g id="line2d_3">
      <g>
       <use xlink:href="#m383ff3a41f" x="130.122045" y="152.53" style="stroke: #000000; stroke-width: 0.8"/>
      </g>
     </g>
     <g id="text_3">
      <!-- bzip2d -->
      <g transform="translate(132.88142 192.964375)rotate(-90)scale(0.1 -0.1)">
       <defs>
        <path id="DejaVuSans-7a" d="M 353 3500 
L 3084 3500 
L 3084 2975 
L 922 459 
L 3084 459 
L 3084 0 
L 275 0 
L 275 525 
L 2438 3041 
L 353 3041 
L 353 3500 
z
" transform="scale(0.015625)"/>
        <path id="DejaVuSans-70" d="M 1159 525 
L 1159 -1331 
L 581 -1331 
L 581 3500 
L 1159 3500 
L 1159 2969 
Q 1341 3281 1617 3432 
Q 1894 3584 2278 3584 
Q 2916 3584 3314 3078 
Q 3713 2572 3713 1747 
Q 3713 922 3314 415 
Q 2916 -91 2278 -91 
Q 1894 -91 1617 61 
Q 1341 213 1159 525 
z
M 3116 1747 
Q 3116 2381 2855 2742 
Q 2594 3103 2138 3103 
Q 1681 3103 1420 2742 
Q 1159 2381 1159 1747 
Q 1159 1113 1420 752 
Q 1681 391 2138 391 
Q 2594 391 2855 752 
Q 3116 1113 3116 1747 
z
" transform="scale(0.015625)"/>
        <path id="DejaVuSans-32" d="M 1228 531 
L 3431 531 
L 3431 0 
L 469 0 
L 469 531 
Q 828 903 1448 1529 
Q 2069 2156 2228 2338 
Q 2531 2678 2651 2914 
Q 2772 3150 2772 3378 
Q 2772 3750 2511 3984 
Q 2250 4219 1831 4219 
Q 1534 4219 1204 4116 
Q 875 4013 500 3803 
L 500 4441 
Q 881 4594 1212 4672 
Q 1544 4750 1819 4750 
Q 2544 4750 2975 4387 
Q 3406 4025 3406 3419 
Q 3406 3131 3298 2873 
Q 3191 2616 2906 2266 
Q 2828 2175 2409 1742 
Q 1991 1309 1228 531 
z
" transform="scale(0.015625)"/>
        <path id="DejaVuSans-64" d="M 2906 2969 
L 2906 4863 
L 3481 4863 
L 3481 0 
L 2906 0 
L 2906 525 
Q 2725 213 2448 61 
Q 2172 -91 1784 -91 
Q 1150 -91 751 415 
Q 353 922 353 1747 
Q 353 2572 751 3078 
Q 1150 3584 1784 3584 
Q 2172 3584 2448 3432 
Q 2725 3281 2906 2969 
z
M 947 1747 
Q 947 1113 1208 752 
Q 1469 391 1925 391 
Q 2381 391 2643 752 
Q 2906 1113 2906 1747 
Q 2906 2381 2643 2742 
Q 2381 3103 1925 3103 
Q 1469 3103 1208 2742 
Q 947 2381 947 1747 
z
" transform="scale(0.015625)"/>
       </defs>
       <use xlink:href="#DejaVuSans-62"/>
       <use xlink:href="#DejaVuSans-7a" x="63.476562"/>
       <use xlink:href="#DejaVuSans-69" x="115.966797"/>
       <use xlink:href="#DejaVuSans-70" x="143.75"/>
       <use xlink:href="#DejaVuSans-32" x="207.226562"/>
       <use xlink:href="#DejaVuSans-64" x="270.849609"/>
      </g>
     </g>
    </g>
    <g id="xtick_4">
     <g id="line2d_4">
      <g>
       <use xlink:href="#m383ff3a41f" x="156.846736" y="152.53" style="stroke: #000000; stroke-width: 0.8"/>
      </g>
     </g>
     <g id="text_4">
      <!-- bzip2e -->
      <g transform="translate(159.606111 192.769063)rotate(-90)scale(0.1 -0.1)">
       <use xlink:href="#DejaVuSans-62"/>
       <use xlink:href="#DejaVuSans-7a" x="63.476562"/>
       <use xlink:href="#DejaVuSans-69" x="115.966797"/>
       <use xlink:href="#DejaVuSans-70" x="143.75"/>
       <use xlink:href="#DejaVuSans-32" x="207.226562"/>
       <use xlink:href="#DejaVuSans-65" x="270.849609"/>
      </g>
     </g>
    </g>
    <g id="xtick_5">
     <g id="line2d_5">
      <g>
       <use xlink:href="#m383ff3a41f" x="183.571426" y="152.53" style="stroke: #000000; stroke-width: 0.8"/>
      </g>
     </g>
     <g id="text_5">
      <!-- consumer_jpeg_c -->
      <g transform="translate(186.191738 246.162813)rotate(-90)scale(0.1 -0.1)">
       <defs>
        <path id="DejaVuSans-6a" d="M 603 3500 
L 1178 3500 
L 1178 -63 
Q 1178 -731 923 -1031 
Q 669 -1331 103 -1331 
L -116 -1331 
L -116 -844 
L 38 -844 
Q 366 -844 484 -692 
Q 603 -541 603 -63 
L 603 3500 
z
M 603 4863 
L 1178 4863 
L 1178 4134 
L 603 4134 
L 603 4863 
z
" transform="scale(0.015625)"/>
        <path id="DejaVuSans-67" d="M 2906 1791 
Q 2906 2416 2648 2759 
Q 2391 3103 1925 3103 
Q 1463 3103 1205 2759 
Q 947 2416 947 1791 
Q 947 1169 1205 825 
Q 1463 481 1925 481 
Q 2391 481 2648 825 
Q 2906 1169 2906 1791 
z
M 3481 434 
Q 3481 -459 3084 -895 
Q 2688 -1331 1869 -1331 
Q 1566 -1331 1297 -1286 
Q 1028 -1241 775 -1147 
L 775 -588 
Q 1028 -725 1275 -790 
Q 1522 -856 1778 -856 
Q 2344 -856 2625 -561 
Q 2906 -266 2906 331 
L 2906 616 
Q 2728 306 2450 153 
Q 2172 0 1784 0 
Q 1141 0 747 490 
Q 353 981 353 1791 
Q 353 2603 747 3093 
Q 1141 3584 1784 3584 
Q 2172 3584 2450 3431 
Q 2728 3278 2906 2969 
L 2906 3500 
L 3481 3500 
L 3481 434 
z
" transform="scale(0.015625)"/>
       </defs>
       <use xlink:href="#DejaVuSans-63"/>
       <use xlink:href="#DejaVuSans-6f" x="54.980469"/>
       <use xlink:href="#DejaVuSans-6e" x="116.162109"/>
       <use xlink:href="#DejaVuSans-73" x="179.541016"/>
       <use xlink:href="#DejaVuSans-75" x="231.640625"/>
       <use xlink:href="#DejaVuSans-6d" x="295.019531"/>
       <use xlink:href="#DejaVuSans-65" x="392.431641"/>
       <use xlink:href="#DejaVuSans-72" x="453.955078"/>
       <use xlink:href="#DejaVuSans-5f" x="495.068359"/>
       <use xlink:href="#DejaVuSans-6a" x="545.068359"/>
       <use xlink:href="#DejaVuSans-70" x="572.851562"/>
       <use xlink:href="#DejaVuSans-65" x="636.328125"/>
       <use xlink:href="#DejaVuSans-67" x="697.851562"/>
       <use xlink:href="#DejaVuSans-5f" x="761.328125"/>
       <use xlink:href="#DejaVuSans-63" x="811.328125"/>
      </g>
     </g>
    </g>
    <g id="xtick_6">
     <g id="line2d_6">
      <g>
       <use xlink:href="#m383ff3a41f" x="210.296116" y="152.53" style="stroke: #000000; stroke-width: 0.8"/>
      </g>
     </g>
     <g id="text_6">
      <!-- consumer_jpeg_d -->
      <g transform="translate(212.916428 247.012812)rotate(-90)scale(0.1 -0.1)">
       <use xlink:href="#DejaVuSans-63"/>
       <use xlink:href="#DejaVuSans-6f" x="54.980469"/>
       <use xlink:href="#DejaVuSans-6e" x="116.162109"/>
       <use xlink:href="#DejaVuSans-73" x="179.541016"/>
       <use xlink:href="#DejaVuSans-75" x="231.640625"/>
       <use xlink:href="#DejaVuSans-6d" x="295.019531"/>
       <use xlink:href="#DejaVuSans-65" x="392.431641"/>
       <use xlink:href="#DejaVuSans-72" x="453.955078"/>
       <use xlink:href="#DejaVuSans-5f" x="495.068359"/>
       <use xlink:href="#DejaVuSans-6a" x="545.068359"/>
       <use xlink:href="#DejaVuSans-70" x="572.851562"/>
       <use xlink:href="#DejaVuSans-65" x="636.328125"/>
       <use xlink:href="#DejaVuSans-67" x="697.851562"/>
       <use xlink:href="#DejaVuSans-5f" x="761.328125"/>
       <use xlink:href="#DejaVuSans-64" x="811.328125"/>
      </g>
     </g>
    </g>
    <g id="xtick_7">
     <g id="line2d_7">
      <g>
       <use xlink:href="#m383ff3a41f" x="237.020806" y="152.53" style="stroke: #000000; stroke-width: 0.8"/>
      </g>
     </g>
     <g id="text_7">
      <!-- consumer_tiff2bw -->
      <g transform="translate(239.641118 248.664375)rotate(-90)scale(0.1 -0.1)">
       <defs>
        <path id="DejaVuSans-66" d="M 2375 4863 
L 2375 4384 
L 1825 4384 
Q 1516 4384 1395 4259 
Q 1275 4134 1275 3809 
L 1275 3500 
L 2222 3500 
L 2222 3053 
L 1275 3053 
L 1275 0 
L 697 0 
L 697 3053 
L 147 3053 
L 147 3500 
L 697 3500 
L 697 3744 
Q 697 4328 969 4595 
Q 1241 4863 1831 4863 
L 2375 4863 
z
" transform="scale(0.015625)"/>
        <path id="DejaVuSans-77" d="M 269 3500 
L 844 3500 
L 1563 769 
L 2278 3500 
L 2956 3500 
L 3675 769 
L 4391 3500 
L 4966 3500 
L 4050 0 
L 3372 0 
L 2619 2869 
L 1863 0 
L 1184 0 
L 269 3500 
z
" transform="scale(0.015625)"/>
       </defs>
       <use xlink:href="#DejaVuSans-63"/>
       <use xlink:href="#DejaVuSans-6f" x="54.980469"/>
       <use xlink:href="#DejaVuSans-6e" x="116.162109"/>
       <use xlink:href="#DejaVuSans-73" x="179.541016"/>
       <use xlink:href="#DejaVuSans-75" x="231.640625"/>
       <use xlink:href="#DejaVuSans-6d" x="295.019531"/>
       <use xlink:href="#DejaVuSans-65" x="392.431641"/>
       <use xlink:href="#DejaVuSans-72" x="453.955078"/>
       <use xlink:href="#DejaVuSans-5f" x="495.068359"/>
       <use xlink:href="#DejaVuSans-74" x="545.068359"/>
       <use xlink:href="#DejaVuSans-69" x="584.277344"/>
       <use xlink:href="#DejaVuSans-66" x="612.060547"/>
       <use xlink:href="#DejaVuSans-66" x="647.265625"/>
       <use xlink:href="#DejaVuSans-32" x="682.470703"/>
       <use xlink:href="#DejaVuSans-62" x="746.09375"/>
       <use xlink:href="#DejaVuSans-77" x="809.570312"/>
      </g>
     </g>
    </g>
    <g id="xtick_8">
     <g id="line2d_8">
      <g>
       <use xlink:href="#m383ff3a41f" x="263.745496" y="152.53" style="stroke: #000000; stroke-width: 0.8"/>
      </g>
     </g>
     <g id="text_8">
      <!-- consumer_tiff2rgba -->
      <g transform="translate(266.365808 256.89875)rotate(-90)scale(0.1 -0.1)">
       <use xlink:href="#DejaVuSans-63"/>
       <use xlink:href="#DejaVuSans-6f" x="54.980469"/>
       <use xlink:href="#DejaVuSans-6e" x="116.162109"/>
       <use xlink:href="#DejaVuSans-73" x="179.541016"/>
       <use xlink:href="#DejaVuSans-75" x="231.640625"/>
       <use xlink:href="#DejaVuSans-6d" x="295.019531"/>
       <use xlink:href="#DejaVuSans-65" x="392.431641"/>
       <use xlink:href="#DejaVuSans-72" x="453.955078"/>
       <use xlink:href="#DejaVuSans-5f" x="495.068359"/>
       <use xlink:href="#DejaVuSans-74" x="545.068359"/>
       <use xlink:href="#DejaVuSans-69" x="584.277344"/>
       <use xlink:href="#DejaVuSans-66" x="612.060547"/>
       <use xlink:href="#DejaVuSans-66" x="647.265625"/>
       <use xlink:href="#DejaVuSans-32" x="682.470703"/>
       <use xlink:href="#DejaVuSans-72" x="746.09375"/>
       <use xlink:href="#DejaVuSans-67" x="785.457031"/>
       <use xlink:href="#DejaVuSans-62" x="848.933594"/>
       <use xlink:href="#DejaVuSans-61" x="912.410156"/>
      </g>
     </g>
    </g>
    <g id="xtick_9">
     <g id="line2d_9">
      <g>
       <use xlink:href="#m383ff3a41f" x="290.470186" y="152.53" style="stroke: #000000; stroke-width: 0.8"/>
      </g>
     </g>
     <g id="text_9">
      <!-- consumer_tiffdither -->
      <g transform="translate(293.090498 257.42375)rotate(-90)scale(0.1 -0.1)">
       <defs>
        <path id="DejaVuSans-68" d="M 3513 2113 
L 3513 0 
L 2938 0 
L 2938 2094 
Q 2938 2591 2744 2837 
Q 2550 3084 2163 3084 
Q 1697 3084 1428 2787 
Q 1159 2491 1159 1978 
L 1159 0 
L 581 0 
L 581 4863 
L 1159 4863 
L 1159 2956 
Q 1366 3272 1645 3428 
Q 1925 3584 2291 3584 
Q 2894 3584 3203 3211 
Q 3513 2838 3513 2113 
z
" transform="scale(0.015625)"/>
       </defs>
       <use xlink:href="#DejaVuSans-63"/>
       <use xlink:href="#DejaVuSans-6f" x="54.980469"/>
       <use xlink:href="#DejaVuSans-6e" x="116.162109"/>
       <use xlink:href="#DejaVuSans-73" x="179.541016"/>
       <use xlink:href="#DejaVuSans-75" x="231.640625"/>
       <use xlink:href="#DejaVuSans-6d" x="295.019531"/>
       <use xlink:href="#DejaVuSans-65" x="392.431641"/>
       <use xlink:href="#DejaVuSans-72" x="453.955078"/>
       <use xlink:href="#DejaVuSans-5f" x="495.068359"/>
       <use xlink:href="#DejaVuSans-74" x="545.068359"/>
       <use xlink:href="#DejaVuSans-69" x="584.277344"/>
       <use xlink:href="#DejaVuSans-66" x="612.060547"/>
       <use xlink:href="#DejaVuSans-66" x="647.265625"/>
       <use xlink:href="#DejaVuSans-64" x="682.470703"/>
       <use xlink:href="#DejaVuSans-69" x="745.947266"/>
       <use xlink:href="#DejaVuSans-74" x="773.730469"/>
       <use xlink:href="#DejaVuSans-68" x="812.939453"/>
       <use xlink:href="#DejaVuSans-65" x="876.318359"/>
       <use xlink:href="#DejaVuSans-72" x="937.841797"/>
      </g>
     </g>
    </g>
    <g id="xtick_10">
     <g id="line2d_10">
      <g>
       <use xlink:href="#m383ff3a41f" x="317.194876" y="152.53" style="stroke: #000000; stroke-width: 0.8"/>
      </g>
     </g>
     <g id="text_10">
      <!-- security_blowfish_d -->
      <g transform="translate(319.815189 257.07375)rotate(-90)scale(0.1 -0.1)">
       <defs>
        <path id="DejaVuSans-79" d="M 2059 -325 
Q 1816 -950 1584 -1140 
Q 1353 -1331 966 -1331 
L 506 -1331 
L 506 -850 
L 844 -850 
Q 1081 -850 1212 -737 
Q 1344 -625 1503 -206 
L 1606 56 
L 191 3500 
L 800 3500 
L 1894 763 
L 2988 3500 
L 3597 3500 
L 2059 -325 
z
" transform="scale(0.015625)"/>
        <path id="DejaVuSans-6c" d="M 603 4863 
L 1178 4863 
L 1178 0 
L 603 0 
L 603 4863 
z
" transform="scale(0.015625)"/>
       </defs>
       <use xlink:href="#DejaVuSans-73"/>
       <use xlink:href="#DejaVuSans-65" x="52.099609"/>
       <use xlink:href="#DejaVuSans-63" x="113.623047"/>
       <use xlink:href="#DejaVuSans-75" x="168.603516"/>
       <use xlink:href="#DejaVuSans-72" x="231.982422"/>
       <use xlink:href="#DejaVuSans-69" x="273.095703"/>
       <use xlink:href="#DejaVuSans-74" x="300.878906"/>
       <use xlink:href="#DejaVuSans-79" x="340.087891"/>
       <use xlink:href="#DejaVuSans-5f" x="399.267578"/>
       <use xlink:href="#DejaVuSans-62" x="449.267578"/>
       <use xlink:href="#DejaVuSans-6c" x="512.744141"/>
       <use xlink:href="#DejaVuSans-6f" x="540.527344"/>
       <use xlink:href="#DejaVuSans-77" x="601.708984"/>
       <use xlink:href="#DejaVuSans-66" x="683.496094"/>
       <use xlink:href="#DejaVuSans-69" x="718.701172"/>
       <use xlink:href="#DejaVuSans-73" x="746.484375"/>
       <use xlink:href="#DejaVuSans-68" x="798.583984"/>
       <use xlink:href="#DejaVuSans-5f" x="861.962891"/>
       <use xlink:href="#DejaVuSans-64" x="911.962891"/>
      </g>
     </g>
    </g>
    <g id="xtick_11">
     <g id="line2d_11">
      <g>
       <use xlink:href="#m383ff3a41f" x="343.919566" y="152.53" style="stroke: #000000; stroke-width: 0.8"/>
      </g>
     </g>
     <g id="text_11">
      <!-- security_blowfish_e -->
      <g transform="translate(346.539879 256.878438)rotate(-90)scale(0.1 -0.1)">
       <use xlink:href="#DejaVuSans-73"/>
       <use xlink:href="#DejaVuSans-65" x="52.099609"/>
       <use xlink:href="#DejaVuSans-63" x="113.623047"/>
       <use xlink:href="#DejaVuSans-75" x="168.603516"/>
       <use xlink:href="#DejaVuSans-72" x="231.982422"/>
       <use xlink:href="#DejaVuSans-69" x="273.095703"/>
       <use xlink:href="#DejaVuSans-74" x="300.878906"/>
       <use xlink:href="#DejaVuSans-79" x="340.087891"/>
       <use xlink:href="#DejaVuSans-5f" x="399.267578"/>
       <use xlink:href="#DejaVuSans-62" x="449.267578"/>
       <use xlink:href="#DejaVuSans-6c" x="512.744141"/>
       <use xlink:href="#DejaVuSans-6f" x="540.527344"/>
       <use xlink:href="#DejaVuSans-77" x="601.708984"/>
       <use xlink:href="#DejaVuSans-66" x="683.496094"/>
       <use xlink:href="#DejaVuSans-69" x="718.701172"/>
       <use xlink:href="#DejaVuSans-73" x="746.484375"/>
       <use xlink:href="#DejaVuSans-68" x="798.583984"/>
       <use xlink:href="#DejaVuSans-5f" x="861.962891"/>
       <use xlink:href="#DejaVuSans-65" x="911.962891"/>
      </g>
     </g>
    </g>
    <g id="xtick_12">
     <g id="line2d_12">
      <g>
       <use xlink:href="#m383ff3a41f" x="370.644256" y="152.53" style="stroke: #000000; stroke-width: 0.8"/>
      </g>
     </g>
     <g id="text_12">
      <!-- security_sha -->
      <g transform="translate(373.264569 222.131563)rotate(-90)scale(0.1 -0.1)">
       <use xlink:href="#DejaVuSans-73"/>
       <use xlink:href="#DejaVuSans-65" x="52.099609"/>
       <use xlink:href="#DejaVuSans-63" x="113.623047"/>
       <use xlink:href="#DejaVuSans-75" x="168.603516"/>
       <use xlink:href="#DejaVuSans-72" x="231.982422"/>
       <use xlink:href="#DejaVuSans-69" x="273.095703"/>
       <use xlink:href="#DejaVuSans-74" x="300.878906"/>
       <use xlink:href="#DejaVuSans-79" x="340.087891"/>
       <use xlink:href="#DejaVuSans-5f" x="399.267578"/>
       <use xlink:href="#DejaVuSans-73" x="449.267578"/>
       <use xlink:href="#DejaVuSans-68" x="501.367188"/>
       <use xlink:href="#DejaVuSans-61" x="564.746094"/>
      </g>
     </g>
    </g>
    <g id="xtick_13">
     <g id="line2d_13">
      <g>
       <use xlink:href="#m383ff3a41f" x="397.368946" y="152.53" style="stroke: #000000; stroke-width: 0.8"/>
      </g>
     </g>
     <g id="text_13">
      <!-- telecom_gsm -->
      <g transform="translate(399.989259 226.190938)rotate(-90)scale(0.1 -0.1)">
       <use xlink:href="#DejaVuSans-74"/>
       <use xlink:href="#DejaVuSans-65" x="39.208984"/>
       <use xlink:href="#DejaVuSans-6c" x="100.732422"/>
       <use xlink:href="#DejaVuSans-65" x="128.515625"/>
       <use xlink:href="#DejaVuSans-63" x="190.039062"/>
       <use xlink:href="#DejaVuSans-6f" x="245.019531"/>
       <use xlink:href="#DejaVuSans-6d" x="306.201172"/>
       <use xlink:href="#DejaVuSans-5f" x="403.613281"/>
       <use xlink:href="#DejaVuSans-67" x="453.613281"/>
       <use xlink:href="#DejaVuSans-73" x="517.089844"/>
       <use xlink:href="#DejaVuSans-6d" x="569.189453"/>
      </g>
     </g>
    </g>
    <g id="xtick_14">
     <g id="line2d_14">
      <g>
       <use xlink:href="#m383ff3a41f" x="424.093636" y="152.53" style="stroke: #000000; stroke-width: 0.8"/>
      </g>
     </g>
     <g id="text_14">
      <!-- automotive_susan_c -->
      <g transform="translate(426.713949 261.384688)rotate(-90)scale(0.1 -0.1)">
       <use xlink:href="#DejaVuSans-61"/>
       <use xlink:href="#DejaVuSans-75" x="61.279297"/>
       <use xlink:href="#DejaVuSans-74" x="124.658203"/>
       <use xlink:href="#DejaVuSans-6f" x="163.867188"/>
       <use xlink:href="#DejaVuSans-6d" x="225.048828"/>
       <use xlink:href="#DejaVuSans-6f" x="322.460938"/>
       <use xlink:href="#DejaVuSans-74" x="383.642578"/>
       <use xlink:href="#DejaVuSans-69" x="422.851562"/>
       <use xlink:href="#DejaVuSans-76" x="450.634766"/>
       <use xlink:href="#DejaVuSans-65" x="509.814453"/>
       <use xlink:href="#DejaVuSans-5f" x="571.337891"/>
       <use xlink:href="#DejaVuSans-73" x="621.337891"/>
       <use xlink:href="#DejaVuSans-75" x="673.4375"/>
       <use xlink:href="#DejaVuSans-73" x="736.816406"/>
       <use xlink:href="#DejaVuSans-61" x="788.916016"/>
       <use xlink:href="#DejaVuSans-6e" x="850.195312"/>
       <use xlink:href="#DejaVuSans-5f" x="913.574219"/>
       <use xlink:href="#DejaVuSans-63" x="963.574219"/>
      </g>
     </g>
    </g>
    <g id="xtick_15">
     <g id="line2d_15">
      <g>
       <use xlink:href="#m383ff3a41f" x="450.818326" y="152.53" style="stroke: #000000; stroke-width: 0.8"/>
      </g>
     </g>
     <g id="text_15">
      <!-- automotive_susan_e -->
      <g transform="translate(453.438639 262.039375)rotate(-90)scale(0.1 -0.1)">
       <use xlink:href="#DejaVuSans-61"/>
       <use xlink:href="#DejaVuSans-75" x="61.279297"/>
       <use xlink:href="#DejaVuSans-74" x="124.658203"/>
       <use xlink:href="#DejaVuSans-6f" x="163.867188"/>
       <use xlink:href="#DejaVuSans-6d" x="225.048828"/>
       <use xlink:href="#DejaVuSans-6f" x="322.460938"/>
       <use xlink:href="#DejaVuSans-74" x="383.642578"/>
       <use xlink:href="#DejaVuSans-69" x="422.851562"/>
       <use xlink:href="#DejaVuSans-76" x="450.634766"/>
       <use xlink:href="#DejaVuSans-65" x="509.814453"/>
       <use xlink:href="#DejaVuSans-5f" x="571.337891"/>
       <use xlink:href="#DejaVuSans-73" x="621.337891"/>
       <use xlink:href="#DejaVuSans-75" x="673.4375"/>
       <use xlink:href="#DejaVuSans-73" x="736.816406"/>
       <use xlink:href="#DejaVuSans-61" x="788.916016"/>
       <use xlink:href="#DejaVuSans-6e" x="850.195312"/>
       <use xlink:href="#DejaVuSans-5f" x="913.574219"/>
       <use xlink:href="#DejaVuSans-65" x="963.574219"/>
      </g>
     </g>
    </g>
    <g id="xtick_16">
     <g id="line2d_16">
      <g>
       <use xlink:href="#m383ff3a41f" x="477.543017" y="152.53" style="stroke: #000000; stroke-width: 0.8"/>
      </g>
     </g>
     <g id="text_16">
      <!-- automotive_susan_s -->
      <g transform="translate(480.163329 261.095625)rotate(-90)scale(0.1 -0.1)">
       <use xlink:href="#DejaVuSans-61"/>
       <use xlink:href="#DejaVuSans-75" x="61.279297"/>
       <use xlink:href="#DejaVuSans-74" x="124.658203"/>
       <use xlink:href="#DejaVuSans-6f" x="163.867188"/>
       <use xlink:href="#DejaVuSans-6d" x="225.048828"/>
       <use xlink:href="#DejaVuSans-6f" x="322.460938"/>
       <use xlink:href="#DejaVuSans-74" x="383.642578"/>
       <use xlink:href="#DejaVuSans-69" x="422.851562"/>
       <use xlink:href="#DejaVuSans-76" x="450.634766"/>
       <use xlink:href="#DejaVuSans-65" x="509.814453"/>
       <use xlink:href="#DejaVuSans-5f" x="571.337891"/>
       <use xlink:href="#DejaVuSans-73" x="621.337891"/>
       <use xlink:href="#DejaVuSans-75" x="673.4375"/>
       <use xlink:href="#DejaVuSans-73" x="736.816406"/>
       <use xlink:href="#DejaVuSans-61" x="788.916016"/>
       <use xlink:href="#DejaVuSans-6e" x="850.195312"/>
       <use xlink:href="#DejaVuSans-5f" x="913.574219"/>
       <use xlink:href="#DejaVuSans-73" x="963.574219"/>
      </g>
     </g>
    </g>
    <g id="xtick_17">
     <g id="line2d_17">
      <g>
       <use xlink:href="#m383ff3a41f" x="504.267707" y="152.53" style="stroke: #000000; stroke-width: 0.8"/>
      </g>
     </g>
     <g id="text_17">
      <!-- telecom_adpcm_c -->
      <g transform="translate(506.888019 249.455)rotate(-90)scale(0.1 -0.1)">
       <use xlink:href="#DejaVuSans-74"/>
       <use xlink:href="#DejaVuSans-65" x="39.208984"/>
       <use xlink:href="#DejaVuSans-6c" x="100.732422"/>
       <use xlink:href="#DejaVuSans-65" x="128.515625"/>
       <use xlink:href="#DejaVuSans-63" x="190.039062"/>
       <use xlink:href="#DejaVuSans-6f" x="245.019531"/>
       <use xlink:href="#DejaVuSans-6d" x="306.201172"/>
       <use xlink:href="#DejaVuSans-5f" x="403.613281"/>
       <use xlink:href="#DejaVuSans-61" x="453.613281"/>
       <use xlink:href="#DejaVuSans-64" x="514.892578"/>
       <use xlink:href="#DejaVuSans-70" x="578.369141"/>
       <use xlink:href="#DejaVuSans-63" x="641.845703"/>
       <use xlink:href="#DejaVuSans-6d" x="696.826172"/>
       <use xlink:href="#DejaVuSans-5f" x="794.238281"/>
       <use xlink:href="#DejaVuSans-63" x="844.238281"/>
      </g>
     </g>
    </g>
    <g id="xtick_18">
     <g id="line2d_18">
      <g>
       <use xlink:href="#m383ff3a41f" x="530.992397" y="152.53" style="stroke: #000000; stroke-width: 0.8"/>
      </g>
     </g>
     <g id="text_18">
      <!-- telecom_adpcm_d -->
      <g transform="translate(533.612709 250.305)rotate(-90)scale(0.1 -0.1)">
       <use xlink:href="#DejaVuSans-74"/>
       <use xlink:href="#DejaVuSans-65" x="39.208984"/>
       <use xlink:href="#DejaVuSans-6c" x="100.732422"/>
       <use xlink:href="#DejaVuSans-65" x="128.515625"/>
       <use xlink:href="#DejaVuSans-63" x="190.039062"/>
       <use xlink:href="#DejaVuSans-6f" x="245.019531"/>
       <use xlink:href="#DejaVuSans-6d" x="306.201172"/>
       <use xlink:href="#DejaVuSans-5f" x="403.613281"/>
       <use xlink:href="#DejaVuSans-61" x="453.613281"/>
       <use xlink:href="#DejaVuSans-64" x="514.892578"/>
       <use xlink:href="#DejaVuSans-70" x="578.369141"/>
       <use xlink:href="#DejaVuSans-63" x="641.845703"/>
       <use xlink:href="#DejaVuSans-6d" x="696.826172"/>
       <use xlink:href="#DejaVuSans-5f" x="794.238281"/>
       <use xlink:href="#DejaVuSans-64" x="844.238281"/>
      </g>
     </g>
    </g>
    <g id="text_19">
     <!-- Benchmarks -->
     <g transform="translate(275.421406 274.522188)scale(0.1 -0.1)">
      <defs>
       <path id="DejaVuSans-42" d="M 1259 2228 
L 1259 519 
L 2272 519 
Q 2781 519 3026 730 
Q 3272 941 3272 1375 
Q 3272 1813 3026 2020 
Q 2781 2228 2272 2228 
L 1259 2228 
z
M 1259 4147 
L 1259 2741 
L 2194 2741 
Q 2656 2741 2882 2914 
Q 3109 3088 3109 3444 
Q 3109 3797 2882 3972 
Q 2656 4147 2194 4147 
L 1259 4147 
z
M 628 4666 
L 2241 4666 
Q 2963 4666 3353 4366 
Q 3744 4066 3744 3513 
Q 3744 3084 3544 2831 
Q 3344 2578 2956 2516 
Q 3422 2416 3680 2098 
Q 3938 1781 3938 1306 
Q 3938 681 3513 340 
Q 3088 0 2303 0 
L 628 0 
L 628 4666 
z
" transform="scale(0.015625)"/>
       <path id="DejaVuSans-6b" d="M 581 4863 
L 1159 4863 
L 1159 1991 
L 2875 3500 
L 3609 3500 
L 1753 1863 
L 3688 0 
L 2938 0 
L 1159 1709 
L 1159 0 
L 581 0 
L 581 4863 
z
" transform="scale(0.015625)"/>
      </defs>
      <use xlink:href="#DejaVuSans-42"/>
      <use xlink:href="#DejaVuSans-65" x="68.603516"/>
      <use xlink:href="#DejaVuSans-6e" x="130.126953"/>
      <use xlink:href="#DejaVuSans-63" x="193.505859"/>
      <use xlink:href="#DejaVuSans-68" x="248.486328"/>
      <use xlink:href="#DejaVuSans-6d" x="311.865234"/>
      <use xlink:href="#DejaVuSans-61" x="409.277344"/>
      <use xlink:href="#DejaVuSans-72" x="470.556641"/>
      <use xlink:href="#DejaVuSans-6b" x="511.669922"/>
      <use xlink:href="#DejaVuSans-73" x="569.580078"/>
     </g>
    </g>
   </g>
   <g id="matplotlib.axis_2">
    <g id="ytick_1">
     <g id="line2d_19">
      <defs>
       <path id="ma5a88ed674" d="M 0 0 
L -3.5 0 
" style="stroke: #000000; stroke-width: 0.8"/>
      </defs>
      <g>
       <use xlink:href="#ma5a88ed674" x="47.81" y="149.792527" style="stroke: #000000; stroke-width: 0.8"/>
      </g>
     </g>
     <g id="text_20">
      <!-- 1.0 -->
      <g transform="translate(24.906875 153.591746)scale(0.1 -0.1)">
       <defs>
        <path id="DejaVuSans-2e" d="M 684 794 
L 1344 794 
L 1344 0 
L 684 0 
L 684 794 
z
" transform="scale(0.015625)"/>
        <path id="DejaVuSans-30" d="M 2034 4250 
Q 1547 4250 1301 3770 
Q 1056 3291 1056 2328 
Q 1056 1369 1301 889 
Q 1547 409 2034 409 
Q 2525 409 2770 889 
Q 3016 1369 3016 2328 
Q 3016 3291 2770 3770 
Q 2525 4250 2034 4250 
z
M 2034 4750 
Q 2819 4750 3233 4129 
Q 3647 3509 3647 2328 
Q 3647 1150 3233 529 
Q 2819 -91 2034 -91 
Q 1250 -91 836 529 
Q 422 1150 422 2328 
Q 422 3509 836 4129 
Q 1250 4750 2034 4750 
z
" transform="scale(0.015625)"/>
       </defs>
       <use xlink:href="#DejaVuSans-31"/>
       <use xlink:href="#DejaVuSans-2e" x="63.623047"/>
       <use xlink:href="#DejaVuSans-30" x="95.410156"/>
      </g>
     </g>
    </g>
    <g id="ytick_2">
     <g id="line2d_20">
      <g>
       <use xlink:href="#ma5a88ed674" x="47.81" y="122.4178" style="stroke: #000000; stroke-width: 0.8"/>
      </g>
     </g>
     <g id="text_21">
      <!-- 1.1 -->
      <g transform="translate(24.906875 126.217018)scale(0.1 -0.1)">
       <use xlink:href="#DejaVuSans-31"/>
       <use xlink:href="#DejaVuSans-2e" x="63.623047"/>
       <use xlink:href="#DejaVuSans-31" x="95.410156"/>
      </g>
     </g>
    </g>
    <g id="ytick_3">
     <g id="line2d_21">
      <g>
       <use xlink:href="#ma5a88ed674" x="47.81" y="95.043072" style="stroke: #000000; stroke-width: 0.8"/>
      </g>
     </g>
     <g id="text_22">
      <!-- 1.2 -->
      <g transform="translate(24.906875 98.842291)scale(0.1 -0.1)">
       <use xlink:href="#DejaVuSans-31"/>
       <use xlink:href="#DejaVuSans-2e" x="63.623047"/>
       <use xlink:href="#DejaVuSans-32" x="95.410156"/>
      </g>
     </g>
    </g>
    <g id="ytick_4">
     <g id="line2d_22">
      <g>
       <use xlink:href="#ma5a88ed674" x="47.81" y="67.668344" style="stroke: #000000; stroke-width: 0.8"/>
      </g>
     </g>
     <g id="text_23">
      <!-- 1.3 -->
      <g transform="translate(24.906875 71.467563)scale(0.1 -0.1)">
       <defs>
        <path id="DejaVuSans-33" d="M 2597 2516 
Q 3050 2419 3304 2112 
Q 3559 1806 3559 1356 
Q 3559 666 3084 287 
Q 2609 -91 1734 -91 
Q 1441 -91 1130 -33 
Q 819 25 488 141 
L 488 750 
Q 750 597 1062 519 
Q 1375 441 1716 441 
Q 2309 441 2620 675 
Q 2931 909 2931 1356 
Q 2931 1769 2642 2001 
Q 2353 2234 1838 2234 
L 1294 2234 
L 1294 2753 
L 1863 2753 
Q 2328 2753 2575 2939 
Q 2822 3125 2822 3475 
Q 2822 3834 2567 4026 
Q 2313 4219 1838 4219 
Q 1578 4219 1281 4162 
Q 984 4106 628 3988 
L 628 4550 
Q 988 4650 1302 4700 
Q 1616 4750 1894 4750 
Q 2613 4750 3031 4423 
Q 3450 4097 3450 3541 
Q 3450 3153 3228 2886 
Q 3006 2619 2597 2516 
z
" transform="scale(0.015625)"/>
       </defs>
       <use xlink:href="#DejaVuSans-31"/>
       <use xlink:href="#DejaVuSans-2e" x="63.623047"/>
       <use xlink:href="#DejaVuSans-33" x="95.410156"/>
      </g>
     </g>
    </g>
    <g id="ytick_5">
     <g id="line2d_23">
      <g>
       <use xlink:href="#ma5a88ed674" x="47.81" y="40.293617" style="stroke: #000000; stroke-width: 0.8"/>
      </g>
     </g>
     <g id="text_24">
      <!-- 1.4 -->
      <g transform="translate(24.906875 44.092835)scale(0.1 -0.1)">
       <defs>
        <path id="DejaVuSans-34" d="M 2419 4116 
L 825 1625 
L 2419 1625 
L 2419 4116 
z
M 2253 4666 
L 3047 4666 
L 3047 1625 
L 3713 1625 
L 3713 1100 
L 3047 1100 
L 3047 0 
L 2419 0 
L 2419 1100 
L 313 1100 
L 313 1709 
L 2253 4666 
z
" transform="scale(0.015625)"/>
       </defs>
       <use xlink:href="#DejaVuSans-31"/>
       <use xlink:href="#DejaVuSans-2e" x="63.623047"/>
       <use xlink:href="#DejaVuSans-34" x="95.410156"/>
      </g>
     </g>
    </g>
    <g id="text_25">
     <!-- Speed up over -O3 -->
     <g transform="translate(18.827188 136.700312)rotate(-90)scale(0.1 -0.1)">
      <defs>
       <path id="DejaVuSans-53" d="M 3425 4513 
L 3425 3897 
Q 3066 4069 2747 4153 
Q 2428 4238 2131 4238 
Q 1616 4238 1336 4038 
Q 1056 3838 1056 3469 
Q 1056 3159 1242 3001 
Q 1428 2844 1947 2747 
L 2328 2669 
Q 3034 2534 3370 2195 
Q 3706 1856 3706 1288 
Q 3706 609 3251 259 
Q 2797 -91 1919 -91 
Q 1588 -91 1214 -16 
Q 841 59 441 206 
L 441 856 
Q 825 641 1194 531 
Q 1563 422 1919 422 
Q 2459 422 2753 634 
Q 3047 847 3047 1241 
Q 3047 1584 2836 1778 
Q 2625 1972 2144 2069 
L 1759 2144 
Q 1053 2284 737 2584 
Q 422 2884 422 3419 
Q 422 4038 858 4394 
Q 1294 4750 2059 4750 
Q 2388 4750 2728 4690 
Q 3069 4631 3425 4513 
z
" transform="scale(0.015625)"/>
       <path id="DejaVuSans-20" transform="scale(0.015625)"/>
       <path id="DejaVuSans-2d" d="M 313 2009 
L 1997 2009 
L 1997 1497 
L 313 1497 
L 313 2009 
z
" transform="scale(0.015625)"/>
       <path id="DejaVuSans-4f" d="M 2522 4238 
Q 1834 4238 1429 3725 
Q 1025 3213 1025 2328 
Q 1025 1447 1429 934 
Q 1834 422 2522 422 
Q 3209 422 3611 934 
Q 4013 1447 4013 2328 
Q 4013 3213 3611 3725 
Q 3209 4238 2522 4238 
z
M 2522 4750 
Q 3503 4750 4090 4092 
Q 4678 3434 4678 2328 
Q 4678 1225 4090 567 
Q 3503 -91 2522 -91 
Q 1538 -91 948 565 
Q 359 1222 359 2328 
Q 359 3434 948 4092 
Q 1538 4750 2522 4750 
z
" transform="scale(0.015625)"/>
      </defs>
      <use xlink:href="#DejaVuSans-53"/>
      <use xlink:href="#DejaVuSans-70" x="63.476562"/>
      <use xlink:href="#DejaVuSans-65" x="126.953125"/>
      <use xlink:href="#DejaVuSans-65" x="188.476562"/>
      <use xlink:href="#DejaVuSans-64" x="250"/>
      <use xlink:href="#DejaVuSans-20" x="313.476562"/>
      <use xlink:href="#DejaVuSans-75" x="345.263672"/>
      <use xlink:href="#DejaVuSans-70" x="408.642578"/>
      <use xlink:href="#DejaVuSans-20" x="472.119141"/>
      <use xlink:href="#DejaVuSans-6f" x="503.90625"/>
      <use xlink:href="#DejaVuSans-76" x="565.087891"/>
      <use xlink:href="#DejaVuSans-65" x="624.267578"/>
      <use xlink:href="#DejaVuSans-72" x="685.791016"/>
      <use xlink:href="#DejaVuSans-20" x="726.904297"/>
      <use xlink:href="#DejaVuSans-2d" x="758.691406"/>
      <use xlink:href="#DejaVuSans-4f" x="797.525391"/>
      <use xlink:href="#DejaVuSans-33" x="876.236328"/>
     </g>
    </g>
   </g>
   <g id="patch_57">
    <path d="M 47.81 152.53 
L 47.81 26.88 
" style="fill: none; stroke: #000000; stroke-width: 0.8; stroke-linejoin: miter; stroke-linecap: square"/>
   </g>
   <g id="patch_58">
    <path d="M 565.2 152.53 
L 565.2 26.88 
" style="fill: none; stroke: #000000; stroke-width: 0.8; stroke-linejoin: miter; stroke-linecap: square"/>
   </g>
   <g id="patch_59">
    <path d="M 47.81 152.53 
L 565.2 152.53 
" style="fill: none; stroke: #000000; stroke-width: 0.8; stroke-linejoin: miter; stroke-linecap: square"/>
   </g>
   <g id="patch_60">
    <path d="M 47.81 26.88 
L 565.2 26.88 
" style="fill: none; stroke: #000000; stroke-width: 0.8; stroke-linejoin: miter; stroke-linecap: square"/>
   </g>
   <g id="text_26">
    <!-- Comparison of Methods on cBench -->
    <g transform="translate(202.055312 20.88)scale(0.12 -0.12)">
     <defs>
      <path id="DejaVuSans-43" d="M 4122 4306 
L 4122 3641 
Q 3803 3938 3442 4084 
Q 3081 4231 2675 4231 
Q 1875 4231 1450 3742 
Q 1025 3253 1025 2328 
Q 1025 1406 1450 917 
Q 1875 428 2675 428 
Q 3081 428 3442 575 
Q 3803 722 4122 1019 
L 4122 359 
Q 3791 134 3420 21 
Q 3050 -91 2638 -91 
Q 1578 -91 968 557 
Q 359 1206 359 2328 
Q 359 3453 968 4101 
Q 1578 4750 2638 4750 
Q 3056 4750 3426 4639 
Q 3797 4528 4122 4306 
z
" transform="scale(0.015625)"/>
      <path id="DejaVuSans-4d" d="M 628 4666 
L 1569 4666 
L 2759 1491 
L 3956 4666 
L 4897 4666 
L 4897 0 
L 4281 0 
L 4281 4097 
L 3078 897 
L 2444 897 
L 1241 4097 
L 1241 0 
L 628 0 
L 628 4666 
z
" transform="scale(0.015625)"/>
     </defs>
     <use xlink:href="#DejaVuSans-43"/>
     <use xlink:href="#DejaVuSans-6f" x="69.824219"/>
     <use xlink:href="#DejaVuSans-6d" x="131.005859"/>
     <use xlink:href="#DejaVuSans-70" x="228.417969"/>
     <use xlink:href="#DejaVuSans-61" x="291.894531"/>
     <use xlink:href="#DejaVuSans-72" x="353.173828"/>
     <use xlink:href="#DejaVuSans-69" x="394.287109"/>
     <use xlink:href="#DejaVuSans-73" x="422.070312"/>
     <use xlink:href="#DejaVuSans-6f" x="474.169922"/>
     <use xlink:href="#DejaVuSans-6e" x="535.351562"/>
     <use xlink:href="#DejaVuSans-20" x="598.730469"/>
     <use xlink:href="#DejaVuSans-6f" x="630.517578"/>
     <use xlink:href="#DejaVuSans-66" x="691.699219"/>
     <use xlink:href="#DejaVuSans-20" x="726.904297"/>
     <use xlink:href="#DejaVuSans-4d" x="758.691406"/>
     <use xlink:href="#DejaVuSans-65" x="844.970703"/>
     <use xlink:href="#DejaVuSans-74" x="906.494141"/>
     <use xlink:href="#DejaVuSans-68" x="945.703125"/>
     <use xlink:href="#DejaVuSans-6f" x="1009.082031"/>
     <use xlink:href="#DejaVuSans-64" x="1070.263672"/>
     <use xlink:href="#DejaVuSans-73" x="1133.740234"/>
     <use xlink:href="#DejaVuSans-20" x="1185.839844"/>
     <use xlink:href="#DejaVuSans-6f" x="1217.626953"/>
     <use xlink:href="#DejaVuSans-6e" x="1278.808594"/>
     <use xlink:href="#DejaVuSans-20" x="1342.1875"/>
     <use xlink:href="#DejaVuSans-63" x="1373.974609"/>
     <use xlink:href="#DejaVuSans-42" x="1428.955078"/>
     <use xlink:href="#DejaVuSans-65" x="1497.558594"/>
     <use xlink:href="#DejaVuSans-6e" x="1559.082031"/>
     <use xlink:href="#DejaVuSans-63" x="1622.460938"/>
     <use xlink:href="#DejaVuSans-68" x="1677.441406"/>
    </g>
   </g>
   <g id="legend_1">
    <g id="patch_61">
     <path d="M 474.765625 78.914375 
L 558.2 78.914375 
Q 560.2 78.914375 560.2 76.914375 
L 560.2 33.88 
Q 560.2 31.88 558.2 31.88 
L 474.765625 31.88 
Q 472.765625 31.88 472.765625 33.88 
L 472.765625 76.914375 
Q 472.765625 78.914375 474.765625 78.914375 
z
" style="fill: #ffffff; opacity: 0.8; stroke: #cccccc; stroke-linejoin: miter"/>
    </g>
    <g id="patch_62">
     <path d="M 476.765625 43.478438 
L 496.765625 43.478438 
L 496.765625 36.478438 
L 476.765625 36.478438 
z
" style="fill: #1f77b4; opacity: 0.8"/>
    </g>
    <g id="text_27">
     <!-- random -->
     <g transform="translate(504.765625 43.478438)scale(0.1 -0.1)">
      <use xlink:href="#DejaVuSans-72"/>
      <use xlink:href="#DejaVuSans-61" x="41.113281"/>
      <use xlink:href="#DejaVuSans-6e" x="102.392578"/>
      <use xlink:href="#DejaVuSans-64" x="165.771484"/>
      <use xlink:href="#DejaVuSans-6f" x="229.248047"/>
      <use xlink:href="#DejaVuSans-6d" x="290.429688"/>
     </g>
    </g>
    <g id="patch_63">
     <path d="M 476.765625 58.156563 
L 496.765625 58.156563 
L 496.765625 51.156563 
L 476.765625 51.156563 
z
" style="fill: #ff7f0e; opacity: 0.8"/>
    </g>
    <g id="text_28">
     <!-- nevergrad -->
     <g transform="translate(504.765625 58.156563)scale(0.1 -0.1)">
      <use xlink:href="#DejaVuSans-6e"/>
      <use xlink:href="#DejaVuSans-65" x="63.378906"/>
      <use xlink:href="#DejaVuSans-76" x="124.902344"/>
      <use xlink:href="#DejaVuSans-65" x="184.082031"/>
      <use xlink:href="#DejaVuSans-72" x="245.605469"/>
      <use xlink:href="#DejaVuSans-67" x="284.96875"/>
      <use xlink:href="#DejaVuSans-72" x="348.445312"/>
      <use xlink:href="#DejaVuSans-61" x="389.558594"/>
      <use xlink:href="#DejaVuSans-64" x="450.837891"/>
     </g>
    </g>
    <g id="patch_64">
     <path d="M 476.765625 72.834688 
L 496.765625 72.834688 
L 496.765625 65.834688 
L 476.765625 65.834688 
z
" style="fill: #2ca02c; opacity: 0.8"/>
    </g>
    <g id="text_29">
     <!-- ours -->
     <g transform="translate(504.765625 72.834688)scale(0.1 -0.1)">
      <use xlink:href="#DejaVuSans-6f"/>
      <use xlink:href="#DejaVuSans-75" x="61.181641"/>
      <use xlink:href="#DejaVuSans-72" x="124.560547"/>
      <use xlink:href="#DejaVuSans-73" x="165.673828"/>
     </g>
    </g>
   </g>
  </g>
 </g>
 <defs>
  <clipPath id="p46bc627c92">
   <rect x="47.81" y="26.88" width="517.39" height="125.65"/>
  </clipPath>
 </defs>
</svg>
